<?xml version="1.0" standalone="no"?>
<!DOCTYPE svg PUBLIC "-//W3C//DTD SVG 20010904//EN"
 "http://www.w3.org/TR/2001/REC-SVG-20010904/DTD/svg10.dtd">
<svg version="1.0" xmlns="http://www.w3.org/2000/svg"
 width="1667.000000pt" height="1667.000000pt" viewBox="0 0 1667.000000 1667.000000"
 preserveAspectRatio="xMidYMid meet">
<metadata>
Created by potrace 1.16, written by Peter Selinger 2001-2019
</metadata>
<g transform="translate(0.000000,1667.000000) scale(0.100000,-0.100000)"
fill="#000000" stroke="none">
<path d="M13066 9778 c-3 -13 -49 -360 -101 -773 -53 -412 -114 -887 -136
-1055 -21 -168 -46 -363 -55 -433 -10 -74 -13 -131 -8 -136 5 -4 88 -22 184
-39 96 -17 734 -133 1418 -257 683 -124 1245 -225 1247 -225 3 0 5 77 5 171
l0 172 -208 211 c-202 205 -629 640 -688 701 -16 17 -213 220 -439 450 -670
686 -744 761 -936 959 -211 218 -269 276 -275 276 -2 0 -6 -10 -8 -22z"/>
<path d="M6563 8212 c-161 -413 -204 -516 -224 -538 l-22 -24 63 0 c61 0 63 1
46 19 -16 17 -16 21 1 67 l19 49 141 3 141 3 17 -51 c16 -48 16 -52 -1 -71
-17 -19 -16 -19 65 -19 l82 0 -24 33 c-13 17 -75 165 -137 327 -61 162 -115
298 -119 302 -3 4 -25 -41 -48 -100z m85 -212 c28 -74 54 -143 57 -152 7 -17
-3 -18 -114 -18 -67 0 -121 3 -121 8 -1 18 115 310 121 304 3 -4 29 -68 57
-142z"/>
<path d="M7508 8308 c-145 -377 -244 -618 -261 -635 l-20 -23 62 0 c57 0 61 1
47 16 -20 19 -20 19 1 77 l17 47 141 0 141 0 12 -33 c15 -43 15 -80 0 -95 -9
-9 6 -12 71 -12 l83 0 -24 28 c-13 16 -75 163 -137 328 -63 164 -117 303 -121
307 -4 5 -10 2 -12 -5z m51 -320 l58 -153 -58 -3 c-32 -2 -87 -2 -122 0 l-65
3 61 158 c33 87 62 156 64 153 2 -2 31 -73 62 -158z"/>
<path d="M5929 8264 c20 -26 21 -39 21 -294 0 -252 -1 -269 -20 -293 -11 -14
-20 -27 -20 -30 0 -9 348 -8 353 0 3 4 8 28 12 53 l7 45 -26 -25 c-24 -22 -37
-25 -126 -28 l-100 -4 0 278 c0 271 0 278 22 301 l21 23 -82 0 -82 0 20 -26z"/>
<path d="M7896 8269 c18 -19 19 -42 22 -296 3 -273 3 -276 -19 -299 l-22 -24
77 0 77 0 -15 22 c-12 17 -16 50 -16 144 l0 121 82 6 c117 9 186 44 212 108
26 64 16 127 -27 173 -47 49 -113 66 -265 66 l-125 0 19 -21z m262 -43 c81
-42 83 -179 3 -220 -16 -9 -58 -18 -95 -22 l-66 -7 0 138 0 138 63 -5 c35 -3
77 -13 95 -22z"/>
<path d="M8449 8265 c20 -27 21 -37 21 -301 0 -268 0 -274 -22 -294 l-22 -20
84 0 84 0 -22 20 c-20 19 -22 30 -22 145 l0 125 53 0 c65 0 163 24 197 48 41
30 62 80 57 140 -5 66 -28 99 -93 132 -44 23 -63 25 -193 28 l-144 4 22 -27z
m232 -26 c57 -18 82 -49 86 -111 7 -93 -36 -134 -151 -145 l-66 -6 0 137 0
136 46 0 c26 0 64 -5 85 -11z"/>
<path d="M8998 8267 c21 -23 22 -30 22 -298 0 -227 -3 -279 -15 -295 -8 -10
-15 -22 -15 -26 0 -5 92 -8 204 -8 l204 0 11 44 c15 61 15 63 -15 35 -24 -23
-32 -24 -157 -24 l-132 0 -3 153 -3 152 71 0 c57 0 74 -4 90 -20 l20 -20 0 60
0 60 -20 -20 c-16 -16 -33 -20 -90 -20 l-70 0 0 105 0 105 85 0 c86 0 138 -15
148 -42 10 -28 13 -1 5 40 l-9 42 -176 0 -176 0 21 -23z"/>
<path d="M9463 8245 c-6 -25 -6 -45 -2 -45 5 0 9 4 9 10 0 20 60 40 120 40
l60 0 0 -278 c0 -235 -2 -281 -16 -300 l-15 -22 77 0 77 0 -19 21 c-18 19 -19
42 -22 301 l-3 280 75 -4 c63 -3 79 -7 102 -28 24 -22 26 -23 21 -5 -3 11 -9
32 -13 48 l-6 27 -217 0 -218 0 -10 -45z"/>
<path d="M10043 8272 c15 -16 17 -52 17 -302 0 -250 -2 -286 -17 -302 -15 -17
-13 -18 62 -18 75 0 77 1 62 18 -15 16 -17 52 -17 300 0 236 2 283 15 296 8 8
15 17 15 20 0 3 -34 6 -77 6 -73 0 -75 -1 -60 -18z"/>
<path d="M10293 8245 c-6 -25 -6 -45 -2 -45 5 0 9 4 9 10 0 20 60 40 120 40
l60 0 0 -280 c0 -274 0 -280 -22 -300 l-22 -20 84 0 84 0 -22 20 c-22 20 -22
26 -22 301 l0 281 76 -4 c65 -3 79 -7 95 -27 25 -30 28 -26 17 27 l-9 42 -218
0 -218 0 -10 -45z"/>
<path d="M7366 4417 c-83 -465 -507 -2807 -510 -2819 -4 -17 9 -18 169 -18
l173 0 464 452 c255 248 639 623 853 833 215 209 593 579 841 820 339 331 447
442 435 447 -9 4 -106 18 -216 32 -110 14 -481 62 -825 106 -344 44 -782 101
-975 125 -192 25 -362 47 -376 50 -24 4 -28 0 -33 -28z"/>
</g>
</svg>
