<?xml version="1.0" standalone="no"?>
<!DOCTYPE svg PUBLIC "-//W3C//DTD SVG 20010904//EN"
 "http://www.w3.org/TR/2001/REC-SVG-20010904/DTD/svg10.dtd">
<svg version="1.0" xmlns="http://www.w3.org/2000/svg"
 width="300.000000pt" height="300.000000pt" viewBox="0 0 300.000000 300.000000"
 preserveAspectRatio="xMidYMid meet">
<metadata>
Created by potrace 1.10, written by Peter Selinger 2001-2011
</metadata>
<g transform="translate(0.000000,300.000000) scale(0.100000,-0.100000)"
fill="#000000" stroke="none">
<path d="M1353 2694 c-22 -24 -22 -31 -25 -349 -2 -179 0 -324 3 -323 4 2 83
61 176 133 l169 130 -150 215 c-82 118 -149 216 -150 217 -1 1 -11 -10 -23
-23z m27 -22 c0 -5 8 -17 18 -28 9 -11 50 -69 91 -129 41 -61 78 -112 82 -115
3 -3 21 -29 39 -58 28 -46 30 -55 17 -65 -61 -48 -254 -195 -264 -201 -10 -5
-12 24 -9 131 2 76 5 213 5 306 1 104 5 167 11 167 6 0 10 -4 10 -8z"/>
<path d="M190 1735 c0 -27 30 -62 227 -264 125 -129 228 -230 230 -225 4 14
53 396 53 416 0 12 -8 18 -22 18 -13 1 -128 20 -255 43 l-233 43 0 -31z m130
-11 c41 -8 89 -18 105 -20 116 -19 211 -37 232 -45 23 -9 25 -13 19 -62 -20
-167 -39 -293 -46 -300 -4 -4 -88 74 -188 175 -224 227 -232 236 -232 254 0
18 17 18 110 -2z"/>
<path d="M2335 1631 c-10 -75 -23 -174 -29 -220 -9 -58 -9 -84 -2 -86 6 -2
122 -23 259 -47 l247 -45 0 32 c0 28 -28 60 -229 267 l-229 235 -17 -136z
m349 -238 c59 -62 105 -117 102 -122 -3 -5 -22 -5 -43 -1 -21 4 -108 20 -193
35 -182 31 -232 43 -226 54 3 4 7 29 10 57 3 27 8 69 11 94 3 25 7 70 11 100
12 113 5 113 118 -2 56 -57 150 -154 210 -215z"/>
<path d="M1650 1610 c0 -19 3 -21 12 -12 9 9 9 15 0 24 -9 9 -12 7 -12 -12z"/>
<path d="M1590 1576 c0 -2 7 -9 15 -16 12 -10 15 -10 15 4 0 9 -7 16 -15 16
-8 0 -15 -2 -15 -4z"/>
<path d="M1700 1565 c0 -8 7 -15 16 -15 14 0 14 3 4 15 -7 8 -14 15 -16 15 -2
0 -4 -7 -4 -15z"/>
<path d="M1650 1519 c0 -5 5 -7 10 -4 6 3 10 8 10 11 0 2 -4 4 -10 4 -5 0 -10
-5 -10 -11z"/>
<path d="M1065 1434 l0 -64 33 0 c17 0 32 5 32 10 0 6 -9 10 -20 10 -17 0 -20
7 -20 49 0 30 -5 51 -12 54 -10 3 -13 -12 -13 -59z"/>
<path d="M1166 1447 c-10 -29 -21 -58 -23 -64 -3 -7 0 -13 6 -13 6 0 11 7 11
15 0 9 9 15 25 15 16 0 25 -6 25 -15 0 -8 7 -15 15 -15 8 0 15 1 15 3 0 5 -47
118 -51 122 -3 2 -13 -19 -23 -48z m28 -35 c-21 -5 -24 0 -17 27 l6 23 13 -23
c11 -20 10 -25 -2 -27z"/>
<path d="M1331 1448 c-13 -29 -25 -59 -28 -65 -3 -7 0 -13 6 -13 6 0 11 7 11
15 0 10 10 15 31 15 24 0 30 -4 25 -15 -3 -9 0 -15 10 -15 17 0 16 4 -14 83
l-19 49 -22 -54z m32 -18 c4 -15 0 -20 -15 -20 -14 0 -18 5 -14 16 3 9 6 20 6
25 0 17 17 1 23 -21z"/>
<path d="M1735 1489 c-23 -3 -30 -7 -16 -8 22 -1 23 -4 19 -56 -3 -36 -1 -55
6 -55 7 0 10 20 8 54 -4 51 -2 55 20 58 12 2 19 5 13 8 -5 3 -28 3 -50 -1z"/>
<path d="M1885 1489 c-22 -3 -31 -7 -19 -8 19 -1 20 -6 16 -56 -3 -42 -1 -55
9 -55 11 0 13 14 10 56 -3 54 -2 57 18 51 12 -3 21 -1 21 3 0 14 -13 16 -55 9z"/>
<path d="M1420 1430 c0 -43 4 -60 13 -60 9 0 12 10 9 30 -4 25 -1 30 16 30 11
0 25 7 32 15 18 21 -4 45 -41 45 -29 0 -29 -1 -29 -60z m55 30 c0 -8 -8 -16
-17 -18 -13 -2 -18 3 -18 18 0 15 5 20 18 18 9 -2 17 -10 17 -18z"/>
<path d="M1520 1430 c0 -43 4 -60 13 -60 9 0 12 10 9 30 -4 25 -1 30 16 30 11
0 25 7 32 15 18 21 -4 45 -41 45 -29 0 -29 -1 -29 -60z m55 30 c0 -8 -8 -16
-17 -18 -13 -2 -18 3 -18 18 0 15 5 20 18 18 9 -2 17 -10 17 -18z"/>
<path d="M1620 1429 l0 -60 37 3 c20 2 38 8 40 14 2 7 -8 9 -27 6 -27 -4 -30
-2 -30 23 0 20 4 26 15 21 8 -3 15 -1 15 4 0 6 -7 10 -15 10 -24 0 -17 28 8
33 16 3 13 5 -10 6 l-33 1 0 -61z"/>
<path d="M1808 1430 c-2 -43 1 -60 10 -60 8 0 12 19 12 60 0 78 -17 78 -22 0z"/>
<path d="M1320 779 c0 -22 -77 -450 -86 -481 -4 -15 1 -18 26 -18 28 0 61 28
270 232 l237 233 -211 27 c-257 33 -236 32 -236 7z m135 -25 c70 -10 71 -10
160 -18 44 -4 82 -10 85 -13 3 -2 -47 -54 -110 -115 -63 -60 -159 -153 -212
-206 -54 -53 -100 -93 -104 -89 -7 6 30 234 62 384 17 80 5 74 119 57z"/>
</g>
</svg>
