<?xml version="1.0" standalone="no"?>
<!DOCTYPE svg PUBLIC "-//W3C//DTD SVG 20010904//EN"
 "http://www.w3.org/TR/2001/REC-SVG-20010904/DTD/svg10.dtd">
<svg version="1.0" xmlns="http://www.w3.org/2000/svg"
 width="300.000000pt" height="300.000000pt" viewBox="0 0 300.000000 300.000000"
 preserveAspectRatio="xMidYMid meet">
<metadata>
Created by potrace 1.10, written by Peter Selinger 2001-2011
</metadata>
<g transform="translate(0.000000,300.000000) scale(0.100000,-0.100000)"
fill="#000000" stroke="none">
<path d="M0 1500 l0 -1500 1500 0 1500 0 0 1500 0 1500 -1500 0 -1500 0 0
-1500z m1526 1000 l150 -215 -169 -130 c-93 -72 -172 -131 -176 -133 -3 -1 -5
144 -3 323 3 318 3 325 25 349 12 13 22 24 23 23 1 -1 68 -99 150 -217z m-848
-820 c14 0 22 -6 22 -18 0 -20 -49 -402 -53 -416 -2 -5 -105 96 -230 225 -197
202 -227 237 -227 264 l0 31 233 -43 c127 -23 242 -42 255 -43z m2132 -415 l0
-32 -247 45 c-137 24 -253 45 -259 47 -7 2 -7 28 2 86 6 46 19 145 29 220 l17
136 229 -235 c201 -207 229 -239 229 -267z m-1148 333 c-9 -9 -12 -7 -12 12 0
19 3 21 12 12 9 -9 9 -15 0 -24z m-42 -34 c0 -14 -3 -14 -15 -4 -8 7 -15 14
-15 16 0 2 7 4 15 4 8 0 15 -7 15 -16z m100 1 c10 -12 10 -15 -4 -15 -9 0 -16
7 -16 15 0 8 2 15 4 15 2 0 9 -7 16 -15z m-50 -39 c0 -3 -4 -8 -10 -11 -5 -3
-10 -1 -10 4 0 6 5 11 10 11 6 0 10 -2 10 -4z m-580 -87 c0 -42 3 -49 20 -49
11 0 20 -4 20 -10 0 -5 -15 -10 -32 -10 l-33 0 0 64 c0 47 3 62 13 59 7 -3 12
-24 12 -54z m126 -6 c28 -69 28 -63 9 -63 -8 0 -15 7 -15 15 0 9 -9 15 -25 15
-16 0 -25 -6 -25 -15 0 -8 -5 -15 -11 -15 -6 0 -9 6 -6 13 2 6 13 35 23 64 10
29 20 50 23 48 2 -3 14 -31 27 -62z m180 -45 c3 -12 0 -18 -10 -18 -10 0 -13
6 -10 15 5 11 -1 15 -25 15 -21 0 -31 -5 -31 -15 0 -8 -5 -15 -11 -15 -6 0 -9
6 -6 13 3 6 15 36 28 65 l22 54 19 -49 c10 -26 21 -56 24 -65z m376 94 c-22
-3 -24 -7 -20 -58 2 -34 -1 -54 -8 -54 -7 0 -9 19 -6 55 4 52 3 55 -19 56 -14
1 -7 5 16 8 22 4 45 4 50 1 6 -3 -1 -6 -13 -8z m168 -2 c0 -4 -9 -6 -21 -3
-20 6 -21 3 -18 -51 3 -42 1 -56 -10 -56 -10 0 -12 13 -9 55 4 50 3 55 -16 56
-12 1 -3 5 19 8 42 7 55 5 55 -9z m-450 -5 c16 -19 -3 -45 -32 -45 -17 0 -20
-5 -16 -30 3 -20 0 -30 -9 -30 -9 0 -13 17 -13 60 0 59 0 60 29 60 16 0 34 -7
41 -15z m100 0 c16 -19 -3 -45 -32 -45 -17 0 -20 -5 -16 -30 3 -20 0 -30 -9
-30 -9 0 -13 17 -13 60 0 59 0 60 29 60 16 0 34 -7 41 -15z m73 8 c-25 -5 -32
-33 -8 -33 8 0 15 -4 15 -10 0 -5 -7 -7 -15 -4 -11 5 -15 -1 -15 -21 0 -25 3
-27 30 -23 19 3 29 1 27 -6 -2 -6 -20 -12 -40 -14 l-37 -3 0 60 0 61 33 -1
c23 -1 26 -3 10 -6z m167 -53 c0 -41 -4 -60 -12 -60 -9 0 -12 17 -10 60 5 78
22 78 22 0z m-274 -658 l211 -27 -237 -233 c-209 -204 -242 -232 -270 -232
-25 0 -30 3 -26 18 9 31 86 459 86 481 0 25 -21 26 236 -7z"/>
<path d="M1359 2513 c0 -93 -3 -230 -5 -306 -3 -107 -1 -136 9 -131 10 6 203
153 264 201 13 10 11 19 -17 65 -18 29 -36 55 -39 58 -4 3 -41 54 -82 115 -41
60 -82 118 -91 129 -10 11 -18 23 -18 28 0 4 -4 8 -10 8 -6 0 -10 -63 -11
-167z"/>
<path d="M210 1726 c0 -18 8 -27 232 -254 100 -101 184 -179 188 -175 7 7 26
133 46 300 6 49 4 53 -19 62 -21 8 -116 26 -232 45 -16 2 -64 12 -105 20 -93
20 -110 20 -110 2z"/>
<path d="M2367 1688 c-3 -13 -8 -48 -11 -78 -4 -30 -8 -75 -11 -100 -3 -25 -8
-67 -11 -94 -3 -28 -7 -53 -10 -57 -6 -11 44 -23 226 -54 85 -15 172 -31 193
-35 21 -4 40 -4 43 1 5 9 -95 117 -312 337 -92 94 -102 101 -107 80z"/>
<path d="M1177 1439 c-7 -27 -4 -32 17 -27 12 2 13 7 2 27 l-13 23 -6 -23z"/>
<path d="M1340 1451 c0 -5 -3 -16 -6 -25 -4 -11 0 -16 14 -16 15 0 19 5 15 20
-6 22 -23 38 -23 21z"/>
<path d="M1440 1460 c0 -15 5 -20 18 -18 9 2 17 10 17 18 0 8 -8 16 -17 18
-13 2 -18 -3 -18 -18z"/>
<path d="M1540 1460 c0 -15 5 -20 18 -18 9 2 17 10 17 18 0 8 -8 16 -17 18
-13 2 -18 -3 -18 -18z"/>
<path d="M1336 697 c-32 -150 -69 -378 -62 -384 4 -4 50 36 104 89 53 53 149
146 212 206 63 61 113 113 110 115 -3 3 -41 9 -85 13 -89 8 -90 8 -160 18
-114 17 -102 23 -119 -57z"/>
</g>
</svg>
